<?xml version="1.0" standalone="no"?><!DOCTYPE svg PUBLIC "-//W3C//DTD SVG 1.1//EN" "http://www.w3.org/Graphics/SVG/1.1/DTD/svg11.dtd"><svg class="icon" width="200px" height="200.00px" viewBox="0 0 1024 1024" version="1.1" xmlns="http://www.w3.org/2000/svg"><path d="M877.056 1024H147.072A147.2 147.2 0 0 1 0 877.056V146.944A147.2 147.2 0 0 1 147.072 0H512a32 32 0 0 1 0 64H147.072A83.2 83.2 0 0 0 64 146.944v730.112C64 922.816 101.312 960 147.072 960h729.984c45.76 0 82.944-37.184 82.944-82.944V512a32 32 0 0 1 64 0v365.12A147.072 147.072 0 0 1 877.056 1024z" fill="#707070" /><path d="M512 544a32 32 0 0 1-22.144-55.104L964.288 34.24a32 32 0 1 1 44.224 46.208L534.144 535.04A31.68 31.68 0 0 1 512 544z" fill="#707070" /></svg>