<?xml version="1.0" standalone="no"?><!DOCTYPE svg PUBLIC "-//W3C//DTD SVG 1.1//EN" "http://www.w3.org/Graphics/SVG/1.1/DTD/svg11.dtd"><svg class="icon" width="200px" height="185.84px" viewBox="0 0 1102 1024" version="1.1" xmlns="http://www.w3.org/2000/svg"><path d="M891.687385 187.529846L590.769231 636.041846 593.526154 768l122.781538-35.997538 301.686154-448.512-126.306461-95.960616z m36.155077-53.425231L977.860923 59.076923 1102.769231 155.687385l-49.230769 75.027692-125.696-96.610462z" fill="#85e24a" /><path d="M759.197538 755.554462l-195.032615 56.812307-5.592615-202.220307L921.993846 79.793231C908.642462 32.236308 866.776615 0.630154 819.180308 0H106.968615C47.596308 0 0 49.624615 0 110.119385v803.76123C0 975.005538 48.206769 1024 106.968615 1024h711.601231C877.942154 1024 925.538462 974.375385 925.538462 913.880615V512.315077l-166.340924 243.239385zM164.332308 193.575385h431.300923c27.904 0 50.392615 23.788308 50.392615 51.869538 0 28.100923-23.118769 51.869538-50.412308 51.869539h-431.261538c-27.923692 0-50.412308-23.768615-50.412308-51.869539 0-28.081231 22.331077-51.869538 50.412308-51.869538zM390.695385 816.836923H164.332308c-27.904 0-50.392615-22.980923-50.392616-51.869538 0-28.888615 22.331077-51.869538 50.412308-51.869539h226.323692c27.904 0 50.392615 22.980923 50.392616 51.869539a50.077538 50.077538 0 0 1-50.392616 51.869538z m90.230153-259.190154H164.332308c-27.904 0-50.392615-23.788308-50.392616-51.869538 0-28.731077 23.099077-51.869538 50.412308-51.869539h316.711385c27.904 0 50.392615 23.768615 50.392615 51.869539-0.157538 28.238769-22.646154 51.869538-50.550154 51.869538z" fill="#f5a623" /></svg>