<?xml version="1.0" standalone="no"?><!DOCTYPE svg PUBLIC "-//W3C//DTD SVG 1.1//EN" "http://www.w3.org/Graphics/SVG/1.1/DTD/svg11.dtd"><svg class="icon" width="200px" height="200.00px" viewBox="0 0 1024 1024" version="1.1" xmlns="http://www.w3.org/2000/svg"><path d="M657.606751 333.735967l-164.240645 158.755724c-4.797259 4.716418-7.41897 10.937097-7.41897 17.588587 0 6.619768 2.686179 12.902868 7.41897 17.524119l164.305113 158.708652c4.797259 4.621251 11.128455 7.211239 18.004049 7.211239 6.747681 0 13.143345-2.589988 18.004049-7.211239 4.764514-4.621251 7.41897-10.824533 7.41897-17.444301 0-6.603395-2.654456-12.950963-7.41897-17.572214l-146.204873-141.216255 146.108682-141.198859c4.860704-4.749164 7.450692-10.889001 7.450692-17.572214 0-6.588045-2.686179-12.855796-7.450692-17.572214-4.764514-4.621251-11.224646-7.179516-18.004049-7.179516S662.402987 329.114716 657.606751 333.735967M461.707059 335.543126l-164.272367 158.755724c-4.764514 4.716418-7.41897 10.937097-7.41897 17.588587 0 6.619768 2.717901 12.902868 7.41897 17.524119L461.739804 688.119183c4.828982 4.621251 11.160177 7.211239 18.004049 7.211239 6.779404 0 13.175067-2.589988 18.004049-7.211239 4.764514-4.621251 7.450692-10.824533 7.450692-17.444301 0-6.603395-2.686179-12.950963-7.450692-17.572214l-146.173151-141.216255 146.07696-141.198859c4.860704-4.749164 7.483438-10.889001 7.483438-17.572214 0-6.588045-2.717901-12.855796-7.483438-17.572214-4.764514-4.621251-11.192923-7.179516-17.972327-7.179516S466.504318 330.921875 461.707059 335.543126" fill="#fa9857" /></svg>