<?xml version="1.0" standalone="no"?><!DOCTYPE svg PUBLIC "-//W3C//DTD SVG 1.1//EN" "http://www.w3.org/Graphics/SVG/1.1/DTD/svg11.dtd"><svg class="icon" width="200px" height="200.00px" viewBox="0 0 1024 1024" version="1.1" xmlns="http://www.w3.org/2000/svg"><path d="M509.962039 88.172997C267.021625 88.172997 69.385322 285.8093 69.385322 528.749714c0 242.941849 197.636303 440.576717 440.576717 440.576717 242.941849 0 440.576717-197.634868 440.576717-440.576717 0-242.940415-197.634868-440.576717-440.576717-440.576717z m0 807.725177c-202.442218 0-367.148459-164.700504-367.148459-367.14846 0-202.442218 164.706241-367.148459 367.148459-367.148459 202.447955 0 367.148459 164.706241 367.14846 367.148459 0 202.447955-164.700504 367.148459-367.14846 367.14846z m0 0" fill="#fa9857" /><path d="M680.61293 636.727216L528.320896 548.648874V308.464941c0-20.269176-16.448538-36.717714-36.717714-36.717714-20.262006 0-36.710543 16.448538-36.710543 36.717714v257.002488c0 13.618913 16.924683 25.03637 27.937703 31.355339 3.047619 4.587922 11.417457 8.734118 16.52168 11.675607l151.450174 91.787115c17.547115 10.128134 36.565692 4.111776 46.700997-13.439641 10.133871-17.552852 0.699877-39.983328-16.890263-50.118633z m0 0" fill="#fa9857" /></svg>