<?xml version="1.0" standalone="no"?><!DOCTYPE svg PUBLIC "-//W3C//DTD SVG 1.1//EN" "http://www.w3.org/Graphics/SVG/1.1/DTD/svg11.dtd"><svg class="icon" width="200px" height="200.00px" viewBox="0 0 1024 1024" version="1.1" xmlns="http://www.w3.org/2000/svg"><path d="M512 512m-512 0a512 512 0 1 0 1024 0 512 512 0 1 0-1024 0Z" fill="#ffae49" /><path d="M400.896 247.808a31.232 31.232 0 0 1 14.336 36.352 32.256 32.256 0 0 1-34.304 23.04 66.56 66.56 0 0 0-41.472 7.168 64 64 0 0 0-32.256 47.616 32.256 32.256 0 1 1-64-10.24A127.488 127.488 0 0 1 314.88 256a133.632 133.632 0 0 1 71.168-11.776 36.352 36.352 0 0 1 14.848 3.584z m380.928 102.4a32.256 32.256 0 0 1-7.68 29.184 32.768 32.768 0 0 1-28.672 9.728 32.256 32.256 0 0 1-28.672-27.648 61.44 61.44 0 0 0-14.336-31.744A65.024 65.024 0 0 0 644.096 307.2a32.256 32.256 0 1 1-8.192-63.488 129.024 129.024 0 0 1 118.784 47.104 125.952 125.952 0 0 1 27.136 62.464zM460.8 502.784v-23.04-34.304a31.744 31.744 0 0 1 22.016-30.72 32.768 32.768 0 0 1 35.84 10.24 33.28 33.28 0 0 1 7.168 21.504v100.864l66.56 67.072a31.744 31.744 0 0 1 0 48.128 32.256 32.256 0 0 1-43.52 0l-11.264-11.264-4.096-4.096-21.504-19.456-41.472-40.96a37.376 37.376 0 0 1-9.728-29.184V502.784z m235.008 38.4A183.296 183.296 0 1 0 512 721.92a181.76 181.76 0 0 0 182.784-180.224zM512 786.432a248.832 248.832 0 0 1-137.728-40.96l-32.768 32.256a32.768 32.768 0 0 1-45.568 0 31.744 31.744 0 0 1 0-45.568l29.184-28.672a242.688 242.688 0 0 1 12.288-335.36 249.856 249.856 0 0 1 348.672 0 242.688 242.688 0 0 1 12.288 335.36l29.184 28.672a31.744 31.744 0 0 1 0 45.568 32.768 32.768 0 0 1-45.568 0l-32.256-31.744a248.832 248.832 0 0 1-137.728 40.448z" fill="#ffffff" /></svg>