<?xml version="1.0"?>
<svg xmlns="http://www.w3.org/2000/svg" xmlns:xlink="http://www.w3.org/1999/xlink" class="" id="Layer_1" style="enable-background:new 0 0 512 512;" viewBox="0 0 512 512" x="0px" y="0px" width="512px" height="512px" version="1.1" xml:space="preserve"><g><g>
	<g>
		<path class="active-path" d="M 499.363 11.91 c -20.571 -20.593 -47.017 -10.412 -75.019 0.368 c -15.456 5.95 -32.974 12.694 -52.283 15.937 c -10.412 1.749 -23.865 2.643 -39.443 3.678 c -57.609 3.83 -144.668 9.617 -206.045 70.992 c -37.026 37.026 -64.762 69.934 -84.511 156.62 c -4.885 21.441 -11.901 43.576 -18.685 64.983 c -10.119 31.928 -19.676 62.085 -22.544 89.737 c -3.41 32.882 3.613 57.555 21.467 75.429 c 14.95 14.966 34.658 22.331 59.955 22.331 c 4.923 0 10.059 -0.279 15.411 -0.835 c 27.624 -2.872 57.749 -12.44 89.644 -22.571 c 21.383 -6.792 43.493 -13.815 64.91 -18.704 c 87.092 -19.885 122.351 -45.264 156.95 -85.141 c 47.143 -54.332 58.339 -137.484 66.515 -198.2 c 2.503 -18.58 4.663 -34.627 7.437 -46.337 c 4.356 -18.394 10.515 -34.647 15.95 -48.987 C 510.804 60.249 520.937 33.509 499.363 11.91 Z M 479.529 83.807 c -5.659 14.934 -12.073 31.861 -16.743 51.576 c -3.012 12.714 -5.236 29.235 -7.812 48.364 c -0.255 1.895 -0.514 3.814 -0.776 5.752 l -73.658 -73.74 c -4.078 -4.084 -10.694 -4.086 -14.779 -0.008 c -4.083 4.078 -4.087 10.695 -0.008 14.779 l 82.772 82.863 c 0.63 0.631 1.326 1.153 2.06 1.589 c -6.166 40.812 -15.554 86.8 -35.824 124.605 l -61.564 -61.633 c -4.078 -4.083 -10.694 -4.086 -14.779 -0.008 c -4.083 4.078 -4.087 10.695 -0.008 14.779 l 65.13 65.202 c -3.176 4.556 -6.541 8.948 -10.155 13.112 c -32.415 37.359 -63.867 59.751 -145.818 78.463 c -22.264 5.084 -44.795 12.239 -66.584 19.161 c -35.793 11.369 -70.37 22.353 -98.689 22.352 c -18.046 0 -33.554 -4.463 -45.207 -16.129 c -29.949 -29.982 -12.384 -85.405 6.213 -144.082 c 1.995 -6.296 4.005 -12.657 5.984 -19.051 l 72.828 72.91 c 2.041 2.044 4.717 3.065 7.393 3.065 c 2.673 0 5.345 -1.019 7.385 -3.056 c 4.084 -4.078 4.087 -10.695 0.008 -14.778 l -80.838 -80.928 c 2.331 -8.275 4.497 -16.563 6.377 -24.816 c 12.112 -53.164 26.863 -84.164 45.561 -109.197 l 76.799 76.884 c 2.041 2.044 4.717 3.065 7.393 3.065 c 2.673 0 5.345 -1.019 7.385 -3.056 c 4.083 -4.078 4.087 -10.695 0.008 -14.779 l -78.282 -78.369 c 6.275 -7.073 12.944 -13.931 20.047 -21.035 c 55.822 -55.822 134.907 -61.079 192.654 -64.917 c 16.138 -1.072 30.074 -1.999 41.519 -3.921 c 21.388 -3.593 39.951 -10.739 56.329 -17.044 c 16.853 -6.488 28.938 -10.885 38.183 -10.885 c 5.81 0 10.499 1.738 14.54 5.785 C 496.099 38.216 491.065 53.362 479.529 83.807 Z" data-original="#000000" data-old_color="#000000" fill="#FA9857"/>
	</g>
</g><g>
	<g>
		<path class="active-path" d="M 223.582 241.089 l -0.097 -0.097 c -4.081 -4.081 -10.697 -4.081 -14.779 0 c -4.081 4.081 -4.081 10.697 0 14.779 l 0.098 0.097 c 2.041 2.041 4.715 3.061 7.389 3.061 s 5.349 -1.02 7.389 -3.061 C 227.663 251.787 227.663 245.171 223.582 241.089 Z" data-original="#000000" data-old_color="#000000" fill="#FA9857"/>
	</g>
</g><g>
	<g>
		<path class="active-path" d="M 356.63 91.827 l -0.096 -0.097 c -4.081 -4.081 -10.697 -4.081 -14.779 0 c -4.081 4.081 -4.081 10.697 0 14.779 l 0.097 0.097 c 2.041 2.041 4.715 3.061 7.389 3.061 c 2.674 0 5.349 -1.02 7.389 -3.061 C 360.71 102.525 360.71 95.908 356.63 91.827 Z" data-original="#000000" data-old_color="#000000" fill="#FA9857"/>
	</g>
</g><g>
	<g>
		<path class="active-path" d="M 248.702 389.417 l -28.777 -28.809 c -4.078 -4.083 -10.694 -4.086 -14.779 -0.008 c -4.083 4.078 -4.087 10.695 -0.008 14.779 l 28.778 28.809 c 2.041 2.043 4.717 3.065 7.393 3.065 c 2.673 0 5.345 -1.019 7.385 -3.056 C 252.776 400.117 252.78 393.501 248.702 389.417 Z" data-original="#000000" data-old_color="#000000" fill="#FA9857"/>
	</g>
</g></g> </svg>
