<?xml version="1.0" standalone="no"?><!DOCTYPE svg PUBLIC "-//W3C//DTD SVG 1.1//EN" "http://www.w3.org/Graphics/SVG/1.1/DTD/svg11.dtd"><svg class="icon" width="200px" height="200.00px" viewBox="0 0 1024 1024" version="1.1" xmlns="http://www.w3.org/2000/svg"><path d="M832 149.333H704v-42.666a21.333 21.333 0 1 0-42.667 0v42.666H362.667v-42.666a21.333 21.333 0 1 0-42.667 0v42.666H192c-47.061 0-85.333 38.272-85.333 85.334V832c0 47.061 38.272 85.333 85.333 85.333h640c47.061 0 85.333-38.272 85.333-85.333V234.667c0-47.062-38.272-85.334-85.333-85.334z m-682.667 85.334C149.333 211.136 168.47 192 192 192h128v42.667a21.333 21.333 0 1 0 42.667 0V192h298.666v42.667a21.333 21.333 0 1 0 42.667 0V192h128c23.53 0 42.667 19.136 42.667 42.667v128H149.333v-128zM874.667 832c0 23.53-19.136 42.667-42.667 42.667H192c-23.53 0-42.667-19.136-42.667-42.667V405.333h725.334V832z" fill="#fa9857" /><path d="M320 533.333h42.667a21.333 21.333 0 1 0 0-42.666H320a21.333 21.333 0 1 0 0 42.666z m341.333 0H704a21.333 21.333 0 1 0 0-42.666h-42.667a21.333 21.333 0 1 0 0 42.666z m-170.666 0h42.666a21.333 21.333 0 1 0 0-42.666h-42.666a21.333 21.333 0 1 0 0 42.666zM320 661.333h42.667a21.333 21.333 0 1 0 0-42.666H320a21.333 21.333 0 1 0 0 42.666z m341.333 0H704a21.333 21.333 0 1 0 0-42.666h-42.667a21.333 21.333 0 1 0 0 42.666z m-170.666 0h42.666a21.333 21.333 0 1 0 0-42.666h-42.666a21.333 21.333 0 1 0 0 42.666zM320 789.333h42.667a21.333 21.333 0 1 0 0-42.666H320a21.333 21.333 0 1 0 0 42.666z m341.333 0H704a21.333 21.333 0 1 0 0-42.666h-42.667a21.333 21.333 0 1 0 0 42.666z m-170.666 0h42.666a21.333 21.333 0 1 0 0-42.666h-42.666a21.333 21.333 0 1 0 0 42.666z" fill="#fa9857" /></svg>