<?xml version="1.0" standalone="no"?><!DOCTYPE svg PUBLIC "-//W3C//DTD SVG 1.1//EN" "http://www.w3.org/Graphics/SVG/1.1/DTD/svg11.dtd"><svg class="icon" width="200px" height="200.00px" viewBox="0 0 1024 1024" version="1.1" xmlns="http://www.w3.org/2000/svg"><path d="M491.396 73.296c7.888-4.704 16.284-9.673 25.692-10.158 8.762 0.485 16.59 5.068 23.987 9.408 19.607 12.329 37.047 27.7 53.918 43.478 35.832 33.987 68.357 71.34 98.595 110.355 40.174 52.277 76.471 108.002 103.399 168.331 14.603 33.54 26.506 68.865 29.363 105.569 5.19 91.619-34.435 184.006-103.096 244.62-49.054 43.983-112.443 71.482-178.063 77.361-0.063 38.003 0.039 76.004-0.043 114.005 0.469 14.113-11.191 26.384-24.898 28.289h-6.284c-9.166-1.521-17.846-6.937-22.022-15.393-3.874-7.098-3.021-15.352-3.083-23.096 0.042-34.616 0.022-69.211 0-103.807-75.212-6.631-147.342-42.037-198.586-97.458-43.132-46.074-71.705-105.629-80.14-168.209-3.185-24.354-4.421-49.238-0.467-73.593 5.881-37.17 19.467-72.638 35.588-106.461 30.052-61.768 69.007-118.812 112.059-172.185 24.456-30.032 50.372-58.908 78.356-85.696 17.4-16.483 35.446-32.483 55.725-45.36m-10.22 78.924c-22.347 20.886-43.071 43.437-62.923 66.676-35.894 42.503-69.191 87.339-97.54 135.276-18.353 31.148-34.758 63.655-46.093 98.067-7.077 22.002-11.985 45.019-10.991 68.236 1.237 59.982 25.125 118.996 65.54 163.264 40.963 45.484 98.815 75.334 159.691 81.904-0.042-65.275 0.121-130.573-0.081-195.87-6.447-0.669-12.916-2.859-17.52-7.623-28.452-28.331-56.76-56.801-85.191-85.11-3.914-3.731-7.279-8.213-8.578-13.525-3.833-12.167 2.798-26.382 14.479-31.412 9.732-4.806 22.144-2.475 29.789 5.11 22.408 22.266 44.674 44.714 67.081 66.979 0.062-40.538 0.02-81.074 0.02-121.631 0.121-6.773-0.711-13.87 2.109-20.258 4.542-11.641 17.521-19.164 29.891-17.236 13.24 1.562 24.271 13.708 24.25 27.092 0.183 71.785-0.061 143.593 0.121 215.377 22.49-22.205 44.693-44.713 67.141-66.959 7.566-7.36 19.609-9.43 29.242-5.091 11.803 4.97 18.656 19.043 15.127 31.393-1.744 7.829-7.987 13.243-13.442 18.638-31.451 31.39-62.804 62.883-94.334 94.232-1.705 1.865-4.379 3.649-3.791 6.592 0.02 33.113-0.023 66.207 0.02 99.303 61.34-6.63 119.642-36.866 160.644-82.96 39.889-44.164 63.371-102.79 64.59-162.349 0.932-22.042-3.529-43.924-10.08-64.852-11.031-34.474-27.336-66.959-45.566-98.127-20.766-35.325-44.268-68.987-69.393-101.332-26.303-33.643-54.285-66.047-84.844-95.917-13.707-13.222-27.841-26.159-43.697-36.805-12.838 8.417-24.438 18.515-35.671 28.918z" fill="#fa9857" /></svg>