<?xml version="1.0" standalone="no"?><!DOCTYPE svg PUBLIC "-//W3C//DTD SVG 1.1//EN" "http://www.w3.org/Graphics/SVG/1.1/DTD/svg11.dtd"><svg class="icon" width="200px" height="200.00px" viewBox="0 0 1024 1024" version="1.1" xmlns="http://www.w3.org/2000/svg"><path d="M647.9 369.7L421.5 597.1c-13.3 13.4-35.1 13.3-48.2-0.3l-54.6-56c-13.1-13.5-34.8-13.7-48.1-0.4L32 777.6v61.2C32 923.4 100.6 992 185.2 992h653.7c84.6 0 153.2-68.6 153.2-153.2V662.7L695.7 369.5c-13.3-13.2-34.7-13.1-47.8 0.2z" fill="#ffb5c4" /><path d="M838.8 1014.8H185.2c-97 0-175.9-78.9-175.9-175.9v-70.7l245.3-243.8c10.7-10.6 24.8-16.5 39.9-16.5h0.4c15.2 0.1 29.5 6.2 40.1 17.1l54.6 56c2.8 2.9 6.2 3.3 7.9 3.4 1.7-0.3 5.1-0.4 7.9-3.3l226.4-227.5c22-22 57.8-22.2 79.9-0.3l303.1 299.9v185.6c0 97-79 176-176 176z m-784-227.7v51.8c0 71.9 58.5 130.4 130.4 130.4h653.7c71.9 0 130.4-58.5 130.4-130.4V672.2L679.7 385.7c-4.3-4.3-11.4-4.3-15.7 0L437.6 613.2c-10.7 10.8-25 16.7-40.1 16.7h-0.3c-15.3-0.1-29.6-6.2-40.2-17.1l-54.5-56c-2.8-2.9-5.6-2.5-8-3.3-1.8 0-5 0.4-7.8 3.2L54.8 787.1z" fill="#4d4d4d" /><path d="M838.8 1024H185.1C83.1 1024 0 940.9 0 838.8V529.3c0-17.7 14.3-32 32-32s32 14.3 32 32v309.5C64 905.6 118.4 960 185.1 960h653.7c66.8 0 121.2-54.4 121.2-121.2V185.2C960 118.4 905.6 64 838.8 64H185.1C118.4 64 64 118.4 64 185.2v68.1c0 17.7-14.3 32-32 32S0 271 0 253.3v-68.1C0 83.1 83.1 0 185.1 0h653.7C940.9 0 1024 83.1 1024 185.2v653.7c0 102-83.1 185.1-185.2 185.1z" fill="#4d4d4d" /><path d="M32 397.9c-17.7 0-32-14.3-32-32v-12.4c0-17.7 14.3-32 32-32s32 14.3 32 32v12.4c0 17.7-14.3 32-32 32zM305.4 171c-61.6 0-111.8 50.2-111.8 111.8 0 61.6 50.1 111.8 111.8 111.8 61.6 0 111.8-50.2 111.8-111.8 0-61.6-50.2-111.8-111.8-111.8z m0 0" fill="#4d4d4d" /></svg>